<?xml version="1.0" encoding="UTF-8" standalone="no"?>
<svg
   width="400"
   height="94.562645"
   version="1.1"
   id="svg6"
   sodipodi:docname="Feastables Logo 05.06.2022.svg"
   inkscape:version="1.1.1 (3bf5ae0d25, 2021-09-20)"
   xmlns:inkscape="http://www.inkscape.org/namespaces/inkscape"
   xmlns:sodipodi="http://sodipodi.sourceforge.net/DTD/sodipodi-0.dtd"
   xmlns="http://www.w3.org/2000/svg"
   xmlns:svg="http://www.w3.org/2000/svg">
  <defs
     id="defs10" />
  <sodipodi:namedview
     id="namedview8"
     pagecolor="#ffffff"
     bordercolor="#111111"
     borderopacity="1"
     inkscape:pageshadow="0"
     inkscape:pageopacity="0"
     inkscape:pagecheckerboard="1"
     showgrid="false"
     inkscape:zoom="1.5632573"
     inkscape:cx="229.96855"
     inkscape:cy="140.41195"
     inkscape:window-width="1600"
     inkscape:window-height="829"
     inkscape:window-x="-8"
     inkscape:window-y="-8"
     inkscape:window-maximized="1"
     inkscape:current-layer="svg6" />
  <path
     d="m 384.53191,34.257683 a 15.501182,15.501182 0 0 1 -3.48699,0.40662 15.723404,15.723404 0 0 1 -15.72341,-15.723405 15.966903,15.966903 0 0 1 0.39717,-3.477541 15.723404,15.723404 0 0 1 -9.23405,-5.401891 A 15.723404,15.723404 0 0 1 352.84397,0 H 0 V 94.562648 H 400 V 47.141844 A 15.723404,15.723404 0 0 1 384.53664,34.257683 Z"
     fill="#4a2425"
     id="path2"
     style="stroke-width:2.36407" />
  <path
     d="m 369.83215,60.730496 h 5.04965 v 1.137116 h -1.8487 v 5.947991 h -1.34988 v -5.947991 h -1.8487 z m 10.69267,0 -1.36879,4.929078 -1.3688,-4.929078 h -1.8487 v 7.066194 h 1.18204 v -5.548463 l 1.5721,5.548463 h 1.02601 l 1.58156,-5.548463 v 5.548463 h 1.20331 V 60.730496 Z M 133.14894,56.929078 c 0.27659,4.791962 -1.24823,11.820331 -9.8227,11.820331 -4.36643,0 -7.87943,-1.711584 -8.70449,-6.539007 -2.56265,6.900709 -12.02364,8.130024 -17.47045,4.624113 a 8.9408983,8.9408983 0 0 1 1,-14.945626 c 7.24113,-3.546099 15.60284,-2.775414 14.79905,-7.472813 a 2.9078014,2.9078014 0 0 0 -2.88652,-2.007093 3.4444444,3.4444444 0 0 0 -3.63593,4.004729 l -11.087474,0.803782 c -0.647755,-8.323877 5.096924,-13.678487 15.278964,-13.678487 10.65484,0 15.21513,3.477541 15.21513,10.293144 0,6.815603 0.0473,9.628842 0.0473,14.437353 0,2.156028 0.80378,2.562647 1.43262,2.562647 0.47281,0 1.39716,-0.276595 1.39716,-2.562647 V 56.614657 Z M 113.8747,51.728132 c -2.34988,2.016549 -5.25295,2.156029 -6.29787,3.617022 a 2.5437352,2.5437352 0 0 0 1.38771,4.033097 3.4869976,3.4869976 0 0 0 3.99527,-1.304965 14.65721,14.65721 0 0 0 0.92435,-6.345154 z m 123.3097,5.200946 c 0.27659,4.791962 -1.24823,11.820331 -9.8227,11.820331 -4.36643,0 -7.87943,-1.711584 -8.71158,-6.539007 -2.56265,6.900709 -11.96927,8.130024 -17.47045,4.624113 a 8.9408983,8.9408983 0 0 1 1.00709,-14.945626 c 7.24114,-3.546099 15.60284,-2.775414 14.79906,-7.472813 a 2.891253,2.891253 0 0 0 -2.88653,-2.007093 3.4420804,3.4420804 0 0 0 -3.62884,4.004729 l -11.14421,0.803782 c -0.6383,-8.323877 5.10638,-13.678487 15.28842,-13.678487 10.6383,0 15.21513,3.477541 15.21513,10.293144 v 14.437353 c 0,2.156028 0.80378,2.562647 1.43262,2.562647 0.4539,0 1.38771,-0.276595 1.38771,-2.562647 v -1.654847 z m -19.32152,-5.189125 c -2.36406,2.016548 -5.25295,2.156028 -6.29787,3.617021 a 2.5437352,2.5437352 0 0 0 1.38771,4.033097 3.4869976,3.4869976 0 0 0 3.99527,-1.304965 14.65721,14.65721 0 0 0 0.92435,-6.345153 z M 48.437352,33.945626 c 0,-2.267139 0.628842,-3.449172 2.283688,-3.534278 a 2.1702128,2.1702128 0 0 1 2.182033,2.340425 l 7.520095,-0.546099 c -0.26714,-7.955083 -7.177305,-8.323877 -13.179669,-8.323877 -6.262412,0 -12.394799,2.621749 -12.394799,9.241134 v 3.11584 h -3.338062 v 7.834515 H 34.8487 v 23.742317 h 13.588652 v -23.6974 h 6.477542 v -7.832151 h -6.477542 z m 99.659578,10.33097 c -0.70922,-1.229315 0.47281,-2.626478 3.08983,-2.626478 a 6.4751773,6.4751773 0 0 1 5.76123,3.423168 l 9.34043,-4.163121 c -3.01419,-5.881796 -9.24823,-7.399527 -16.19622,-7.399527 -8.47281,0 -14.89362,4.144208 -14.79906,10.728133 0.23641,11.654846 18.74705,8.066194 20.17258,12.309692 0.47281,1.41844 -0.85106,2.486998 -3.45863,2.486998 a 11.035461,11.035461 0 0 1 -7.75886,-3.690307 l -9.90071,5.486997 c 3.46808,5.401892 9.73049,7.936171 17.85106,7.936171 11.74705,0 15.98345,-5.345154 15.98345,-11.617022 0,-12.236406 -17.86052,-9.009456 -20.11584,-12.874704 z m 198.93853,0 c -0.72104,-1.229315 0.47281,-2.626478 3.08984,-2.626478 a 6.4751773,6.4751773 0 0 1 5.76122,3.423168 l 9.33334,-4.163121 c -3.01419,-5.881796 -9.24823,-7.399527 -16.19622,-7.399527 -8.46336,0 -14.89362,4.144208 -14.79905,10.728133 0.22222,11.654846 18.73758,8.066194 20.17257,12.309692 0.47282,1.41844 -0.86052,2.486998 -3.45863,2.486998 a 11.068558,11.068558 0 0 1 -7.76832,-3.699764 l -9.79432,5.541372 c 3.45863,5.401891 9.72104,7.93617 17.85106,7.93617 11.73759,0 15.98345,-5.345154 15.98345,-11.617022 0,-12.236406 -17.86052,-9.009456 -20.11584,-12.874704 z M 91.508274,51.990544 v 0.260047 H 69.049645 c -0.295508,4.522459 2.442081,6.983452 5.673759,6.983452 a 6.4208038,6.4208038 0 0 0 5.744681,-2.293145 l 10.06383,0.721041 C 88.312057,64.579196 82.208038,68.815603 73.652482,68.815603 A 17.368794,17.368794 0 0 1 55.921986,51.243499 17.34279,17.34279 0 0 1 73.652482,33.671395 c 10.401892,0 17.841608,7.565012 17.841608,18.397163 z M 77.940898,47.680851 V 46.654846 A 3.5271868,3.5271868 0 0 0 73.898345,42.87234 4.3829787,4.3829787 0 0 0 69.356974,47.680851 Z M 186.59338,26.888889 178.74941,26.323877 c 0,3.810875 -1.58156,10.080378 -9.7305,10.080378 v 7.829788 h 4.12293 v 16.524822 c 0,5.437352 4.77305,8.130024 10.16549,8.130024 9.24823,0 10.8487,-6.104019 10.6383,-11.820331 l -4.51301,-0.323877 v 1.702128 c 0,2.283687 -0.92435,2.562647 -1.3877,2.562647 -0.62884,0 -1.43263,-0.406619 -1.43263,-2.562647 V 44.234043 h 7.5461 v -7.829788 h -7.54137 v -9.515366 z m 93.68085,-5.938534 V 67.93617 h 13.30969 l -0.0567,-46.061466 z m -3.74704,30.160756 c 0,11.099291 -5.87234,17.851064 -13.58629,17.851064 A 12.463357,12.463357 0 0 1 252.2766,62.877069 V 67.93617 H 239.4208 V 20.829787 l 13.00237,0.92435 0.0544,11.699764 a 42.676123,42.676123 0 0 1 -0.32388,5.827423 12.855792,12.855792 0 0 1 10.79906,-5.685579 c 7.3286,0 13.58629,6.742316 13.58629,17.406619 z m -13.98345,0.333333 a 4.9172577,4.9172577 0 1 0 -9.80379,-0.527186 4.8132388,4.8132388 0 0 0 4.83688,5.437352 4.6572104,4.6572104 0 0 0 5.00473,-4.919622 z m 70.06146,0.498818 v 0.260048 h -22.45863 c -0.29551,4.522458 2.44208,6.983451 5.67376,6.983451 a 6.4208038,6.4208038 0 0 0 5.74468,-2.293144 l 10.06383,0.72104 c -2.21986,6.917258 -8.32388,11.153665 -16.87943,11.153665 a 17.368794,17.368794 0 0 1 -17.7305,-17.572105 17.34279,17.34279 0 0 1 17.7305,-17.572104 c 10.40189,0 17.84161,7.565012 17.84161,18.397164 z M 319.03783,47.63357 v -1.035461 a 3.5271868,3.5271868 0 0 0 -4.04256,-3.782506 4.3829787,4.3829787 0 0 0 -4.54137,4.80851 z"
     fill="#ffffff"
     id="path4"
     style="stroke-width:2.36407" />
</svg>
